<svg width="10" height="22" viewBox="0 0 10 22" fill="none" xmlns="http://www.w3.org/2000/svg">
<path d="M8.60582 1.78977C8.36056 1.78977 8.15009 1.70194 7.97443 1.52628C7.79877 1.35062 7.71094 1.14015 7.71094 0.894886C7.71094 0.649621 7.79877 0.439157 7.97443 0.263494C8.15009 0.0878316 8.36056 0 8.60582 0C8.85109 0 9.06155 0.0878316 9.23722 0.263494C9.41288 0.439157 9.50071 0.649621 9.50071 0.894886C9.50071 1.05729 9.45928 1.20644 9.37642 1.34233C9.29687 1.47822 9.18916 1.58759 9.05327 1.67045C8.92069 1.75 8.77154 1.78977 8.60582 1.78977Z" fill="#35425E"/>
<path d="M4.75036 1.78977C4.50509 1.78977 4.29463 1.70194 4.11896 1.52628C3.9433 1.35062 3.85547 1.14015 3.85547 0.894886C3.85547 0.649621 3.9433 0.439157 4.11896 0.263494C4.29463 0.0878316 4.50509 0 4.75036 0C4.99562 0 5.20608 0.0878316 5.38175 0.263494C5.55741 0.439157 5.64524 0.649621 5.64524 0.894886C5.64524 1.05729 5.60381 1.20644 5.52095 1.34233C5.44141 1.47822 5.33369 1.58759 5.1978 1.67045C5.06522 1.75 4.91607 1.78977 4.75036 1.78977Z" fill="#35425E"/>
<path d="M0.894886 1.78977C0.649621 1.78977 0.439157 1.70194 0.263494 1.52628C0.0878314 1.35062 0 1.14015 0 0.894886C0 0.649621 0.0878314 0.439157 0.263494 0.263494C0.439157 0.0878316 0.649621 0 0.894886 0C1.14015 0 1.35062 0.0878316 1.52628 0.263494C1.70194 0.439157 1.78977 0.649621 1.78977 0.894886C1.78977 1.05729 1.74834 1.20644 1.66548 1.34233C1.58594 1.47822 1.47822 1.58759 1.34233 1.67045C1.20975 1.75 1.06061 1.78977 0.894886 1.78977Z" fill="#35425E"/>
<path d="M8.60582 9.78977C8.36056 9.78977 8.15009 9.70194 7.97443 9.52628C7.79877 9.35062 7.71094 9.14015 7.71094 8.89489C7.71094 8.64962 7.79877 8.43916 7.97443 8.26349C8.15009 8.08783 8.36056 8 8.60582 8C8.85109 8 9.06155 8.08783 9.23722 8.26349C9.41288 8.43916 9.50071 8.64962 9.50071 8.89489C9.50071 9.05729 9.45928 9.20644 9.37642 9.34233C9.29687 9.47822 9.18916 9.58759 9.05327 9.67045C8.92069 9.75 8.77154 9.78977 8.60582 9.78977Z" fill="#35425E"/>
<path d="M4.75036 9.78977C4.50509 9.78977 4.29463 9.70194 4.11896 9.52628C3.9433 9.35062 3.85547 9.14015 3.85547 8.89489C3.85547 8.64962 3.9433 8.43916 4.11896 8.26349C4.29463 8.08783 4.50509 8 4.75036 8C4.99562 8 5.20608 8.08783 5.38175 8.26349C5.55741 8.43916 5.64524 8.64962 5.64524 8.89489C5.64524 9.05729 5.60381 9.20644 5.52095 9.34233C5.44141 9.47822 5.33369 9.58759 5.1978 9.67045C5.06522 9.75 4.91607 9.78977 4.75036 9.78977Z" fill="#35425E"/>
<path d="M0.894886 9.78977C0.649621 9.78977 0.439157 9.70194 0.263494 9.52628C0.0878314 9.35062 0 9.14015 0 8.89489C0 8.64962 0.0878314 8.43916 0.263494 8.26349C0.439157 8.08783 0.649621 8 0.894886 8C1.14015 8 1.35062 8.08783 1.52628 8.26349C1.70194 8.43916 1.78977 8.64962 1.78977 8.89489C1.78977 9.05729 1.74834 9.20644 1.66548 9.34233C1.58594 9.47822 1.47822 9.58759 1.34233 9.67045C1.20975 9.75 1.06061 9.78977 0.894886 9.78977Z" fill="#35425E"/>
<path d="M8.60582 17.7898C8.36056 17.7898 8.15009 17.7019 7.97443 17.5263C7.79877 17.3506 7.71094 17.1402 7.71094 16.8949C7.71094 16.6496 7.79877 16.4392 7.97443 16.2635C8.15009 16.0878 8.36056 16 8.60582 16C8.85109 16 9.06155 16.0878 9.23722 16.2635C9.41288 16.4392 9.50071 16.6496 9.50071 16.8949C9.50071 17.0573 9.45928 17.2064 9.37642 17.3423C9.29687 17.4782 9.18916 17.5876 9.05327 17.6705C8.92069 17.75 8.77154 17.7898 8.60582 17.7898Z" fill="#35425E"/>
<path d="M4.75036 17.7898C4.50509 17.7898 4.29463 17.7019 4.11896 17.5263C3.9433 17.3506 3.85547 17.1402 3.85547 16.8949C3.85547 16.6496 3.9433 16.4392 4.11896 16.2635C4.29463 16.0878 4.50509 16 4.75036 16C4.99562 16 5.20608 16.0878 5.38175 16.2635C5.55741 16.4392 5.64524 16.6496 5.64524 16.8949C5.64524 17.0573 5.60381 17.2064 5.52095 17.3423C5.44141 17.4782 5.33369 17.5876 5.1978 17.6705C5.06522 17.75 4.91607 17.7898 4.75036 17.7898Z" fill="#35425E"/>
<path d="M0.894886 17.7898C0.649621 17.7898 0.439157 17.7019 0.263494 17.5263C0.0878314 17.3506 0 17.1402 0 16.8949C0 16.6496 0.0878314 16.4392 0.263494 16.2635C0.439157 16.0878 0.649621 16 0.894886 16C1.14015 16 1.35062 16.0878 1.52628 16.2635C1.70194 16.4392 1.78977 16.6496 1.78977 16.8949C1.78977 17.0573 1.74834 17.2064 1.66548 17.3423C1.58594 17.4782 1.47822 17.5876 1.34233 17.6705C1.20975 17.75 1.06061 17.7898 0.894886 17.7898Z" fill="#35425E"/>
<path d="M8.60582 5.78977C8.36056 5.78977 8.15009 5.70194 7.97443 5.52628C7.79877 5.35062 7.71094 5.14015 7.71094 4.89489C7.71094 4.64962 7.79877 4.43916 7.97443 4.26349C8.15009 4.08783 8.36056 4 8.60582 4C8.85109 4 9.06155 4.08783 9.23722 4.26349C9.41288 4.43916 9.50071 4.64962 9.50071 4.89489C9.50071 5.05729 9.45928 5.20644 9.37642 5.34233C9.29687 5.47822 9.18916 5.58759 9.05327 5.67045C8.92069 5.75 8.77154 5.78977 8.60582 5.78977Z" fill="#35425E"/>
<path d="M4.75036 5.78977C4.50509 5.78977 4.29463 5.70194 4.11896 5.52628C3.9433 5.35062 3.85547 5.14015 3.85547 4.89489C3.85547 4.64962 3.9433 4.43916 4.11896 4.26349C4.29463 4.08783 4.50509 4 4.75036 4C4.99562 4 5.20608 4.08783 5.38175 4.26349C5.55741 4.43916 5.64524 4.64962 5.64524 4.89489C5.64524 5.05729 5.60381 5.20644 5.52095 5.34233C5.44141 5.47822 5.33369 5.58759 5.1978 5.67045C5.06522 5.75 4.91607 5.78977 4.75036 5.78977Z" fill="#35425E"/>
<path d="M0.894886 5.78977C0.649621 5.78977 0.439157 5.70194 0.263494 5.52628C0.0878314 5.35062 0 5.14015 0 4.89489C0 4.64962 0.0878314 4.43916 0.263494 4.26349C0.439157 4.08783 0.649621 4 0.894886 4C1.14015 4 1.35062 4.08783 1.52628 4.26349C1.70194 4.43916 1.78977 4.64962 1.78977 4.89489C1.78977 5.05729 1.74834 5.20644 1.66548 5.34233C1.58594 5.47822 1.47822 5.58759 1.34233 5.67045C1.20975 5.75 1.06061 5.78977 0.894886 5.78977Z" fill="#35425E"/>
<path d="M8.60582 13.7898C8.36056 13.7898 8.15009 13.7019 7.97443 13.5263C7.79877 13.3506 7.71094 13.1402 7.71094 12.8949C7.71094 12.6496 7.79877 12.4392 7.97443 12.2635C8.15009 12.0878 8.36056 12 8.60582 12C8.85109 12 9.06155 12.0878 9.23722 12.2635C9.41288 12.4392 9.50071 12.6496 9.50071 12.8949C9.50071 13.0573 9.45928 13.2064 9.37642 13.3423C9.29687 13.4782 9.18916 13.5876 9.05327 13.6705C8.92069 13.75 8.77154 13.7898 8.60582 13.7898Z" fill="#35425E"/>
<path d="M4.75036 13.7898C4.50509 13.7898 4.29463 13.7019 4.11896 13.5263C3.9433 13.3506 3.85547 13.1402 3.85547 12.8949C3.85547 12.6496 3.9433 12.4392 4.11896 12.2635C4.29463 12.0878 4.50509 12 4.75036 12C4.99562 12 5.20608 12.0878 5.38175 12.2635C5.55741 12.4392 5.64524 12.6496 5.64524 12.8949C5.64524 13.0573 5.60381 13.2064 5.52095 13.3423C5.44141 13.4782 5.33369 13.5876 5.1978 13.6705C5.06522 13.75 4.91607 13.7898 4.75036 13.7898Z" fill="#35425E"/>
<path d="M0.894886 13.7898C0.649621 13.7898 0.439157 13.7019 0.263494 13.5263C0.0878314 13.3506 0 13.1402 0 12.8949C0 12.6496 0.0878314 12.4392 0.263494 12.2635C0.439157 12.0878 0.649621 12 0.894886 12C1.14015 12 1.35062 12.0878 1.52628 12.2635C1.70194 12.4392 1.78977 12.6496 1.78977 12.8949C1.78977 13.0573 1.74834 13.2064 1.66548 13.3423C1.58594 13.4782 1.47822 13.5876 1.34233 13.6705C1.20975 13.75 1.06061 13.7898 0.894886 13.7898Z" fill="#35425E"/>
<path d="M8.60582 21.7898C8.36056 21.7898 8.15009 21.7019 7.97443 21.5263C7.79877 21.3506 7.71094 21.1402 7.71094 20.8949C7.71094 20.6496 7.79877 20.4392 7.97443 20.2635C8.15009 20.0878 8.36056 20 8.60582 20C8.85109 20 9.06155 20.0878 9.23722 20.2635C9.41288 20.4392 9.50071 20.6496 9.50071 20.8949C9.50071 21.0573 9.45928 21.2064 9.37642 21.3423C9.29687 21.4782 9.18916 21.5876 9.05327 21.6705C8.92069 21.75 8.77154 21.7898 8.60582 21.7898Z" fill="#35425E"/>
<path d="M4.75036 21.7898C4.50509 21.7898 4.29463 21.7019 4.11896 21.5263C3.9433 21.3506 3.85547 21.1402 3.85547 20.8949C3.85547 20.6496 3.9433 20.4392 4.11896 20.2635C4.29463 20.0878 4.50509 20 4.75036 20C4.99562 20 5.20608 20.0878 5.38175 20.2635C5.55741 20.4392 5.64524 20.6496 5.64524 20.8949C5.64524 21.0573 5.60381 21.2064 5.52095 21.3423C5.44141 21.4782 5.33369 21.5876 5.1978 21.6705C5.06522 21.75 4.91607 21.7898 4.75036 21.7898Z" fill="#35425E"/>
<path d="M0.894886 21.7898C0.649621 21.7898 0.439157 21.7019 0.263494 21.5263C0.0878314 21.3506 0 21.1402 0 20.8949C0 20.6496 0.0878314 20.4392 0.263494 20.2635C0.439157 20.0878 0.649621 20 0.894886 20C1.14015 20 1.35062 20.0878 1.52628 20.2635C1.70194 20.4392 1.78977 20.6496 1.78977 20.8949C1.78977 21.0573 1.74834 21.2064 1.66548 21.3423C1.58594 21.4782 1.47822 21.5876 1.34233 21.6705C1.20975 21.75 1.06061 21.7898 0.894886 21.7898Z" fill="#35425E"/>
</svg>
